<svg xmlns="http://www.w3.org/2000/svg" xmlns:xlink="http://www.w3.org/1999/xlink" width="500" zoomAndPan="magnify" viewBox="0 0 375 374.999991" height="500" preserveAspectRatio="xMidYMid meet" version="1.0"><defs><g/><clipPath id="fa1d759f46"><path d="M 0.71875 7.019531 L 43.433594 7.019531 L 43.433594 48.292969 L 0.71875 48.292969 Z M 0.71875 7.019531 " clip-rule="nonzero"/></clipPath><clipPath id="40cce4dcbe"><path d="M 24.152344 7.019531 L 43.21875 7.019531 L 43.21875 25.164062 L 24.152344 25.164062 Z M 24.152344 7.019531 " clip-rule="nonzero"/></clipPath><clipPath id="e7ebaf8453"><path d="M 0.152344 0.0195312 L 19.21875 0.0195312 L 19.21875 18.164062 L 0.152344 18.164062 Z M 0.152344 0.0195312 " clip-rule="nonzero"/></clipPath><clipPath id="632e368528"><rect x="0" width="20" y="0" height="19"/></clipPath><clipPath id="3773f625a9"><path d="M 26.554688 0.78125 L 45.625 0.78125 L 45.625 5.695312 L 26.554688 5.695312 Z M 26.554688 0.78125 " clip-rule="nonzero"/></clipPath><clipPath id="776f8458a1"><path d="M 0.554688 0.78125 L 19.625 0.78125 L 19.625 5.695312 L 0.554688 5.695312 Z M 0.554688 0.78125 " clip-rule="nonzero"/></clipPath><clipPath id="258462b619"><rect x="0" width="20" y="0" height="6"/></clipPath><clipPath id="193a68b6e6"><path d="M 44.355469 0.777344 L 49.273438 0.777344 L 49.273438 22.316406 L 44.355469 22.316406 Z M 44.355469 0.777344 " clip-rule="nonzero"/></clipPath><clipPath id="b73e8387d3"><path d="M 0.355469 0.777344 L 5.273438 0.777344 L 5.273438 22.316406 L 0.355469 22.316406 Z M 0.355469 0.777344 " clip-rule="nonzero"/></clipPath><clipPath id="661ce3dc25"><rect x="0" width="6" y="0" height="23"/></clipPath><clipPath id="46e3124fd5"><rect x="0" width="50" y="0" height="49"/></clipPath></defs><rect x="-37.5" width="450" fill="#ffffff" y="-37.499999" height="449.999989" fill-opacity="1"/><rect x="-37.5" width="450" fill="#fffef0" y="-37.499999" height="449.999989" fill-opacity="1"/><g transform="matrix(1, 0, 0, 1, 120, 163)"><g clip-path="url(#46e3124fd5)"><g clip-path="url(#fa1d759f46)"><path fill="#f9943b" d="M 43.195312 30.171875 L 28.015625 30.171875 L 38.277344 40.433594 L 34.886719 43.824219 L 24.429688 33.367188 L 24.429688 48.214844 L 19.640625 48.214844 L 19.640625 33.546875 L 8.75 44.4375 L 5.140625 40.824219 L 15.792969 30.171875 L 0.722656 30.171875 L 0.722656 25.058594 L 16.132812 25.058594 L 5.761719 14.6875 L 9.148438 11.300781 L 19.640625 21.796875 L 19.640625 7.019531 L 24.429688 7.019531 L 24.429688 21.527344 L 35.167969 10.789062 L 38.777344 14.40625 L 28.125 25.058594 L 43.195312 25.058594 Z M 43.195312 30.171875 " fill-opacity="1" fill-rule="nonzero"/></g><g clip-path="url(#40cce4dcbe)"><g transform="matrix(1, 0, 0, 1, 24, 7)"><g clip-path="url(#632e368528)"><g clip-path="url(#e7ebaf8453)"><path fill="#fffef0" d="M 0.152344 0.0195312 L 19.21875 0.0195312 L 19.21875 18.164062 L 0.152344 18.164062 Z M 0.152344 0.0195312 " fill-opacity="1" fill-rule="nonzero"/></g></g></g></g><g clip-path="url(#3773f625a9)"><g transform="matrix(1, 0, 0, 1, 26, 0)"><g clip-path="url(#258462b619)"><g clip-path="url(#776f8458a1)"><path fill="#f9943b" d="M 0.554688 0.78125 L 19.621094 0.78125 L 19.621094 5.695312 L 0.554688 5.695312 Z M 0.554688 0.78125 " fill-opacity="1" fill-rule="nonzero"/></g></g></g></g><g clip-path="url(#193a68b6e6)"><g transform="matrix(1, 0, 0, 1, 44, 0)"><g clip-path="url(#661ce3dc25)"><g clip-path="url(#b73e8387d3)"><path fill="#f9943b" d="M 0.355469 22.316406 L 0.355469 0.773438 L 5.273438 0.773438 L 5.273438 22.316406 Z M 0.355469 22.316406 " fill-opacity="1" fill-rule="nonzero"/></g></g></g></g></g></g><g fill="#1a1815" fill-opacity="1"><g transform="translate(172.056087, 208.221123)"><g><path d="M 12.65625 0.46875 C 11.363281 0.46875 10.132812 0.28125 8.96875 -0.09375 C 7.8125 -0.476562 6.75 -1.019531 5.78125 -1.71875 C 4.820312 -2.425781 3.988281 -3.257812 3.28125 -4.21875 C 2.582031 -5.175781 2.035156 -6.226562 1.640625 -7.375 C 1.253906 -8.53125 1.0625 -9.742188 1.0625 -11.015625 C 1.0625 -12.296875 1.253906 -13.507812 1.640625 -14.65625 C 2.035156 -15.800781 2.582031 -16.847656 3.28125 -17.796875 C 3.988281 -18.753906 4.820312 -19.582031 5.78125 -20.28125 C 6.75 -20.988281 7.8125 -21.53125 8.96875 -21.90625 C 10.132812 -22.289062 11.363281 -22.484375 12.65625 -22.484375 C 13.820312 -22.484375 14.972656 -22.3125 16.109375 -21.96875 C 17.253906 -21.625 18.320312 -21.097656 19.3125 -20.390625 C 20.300781 -19.679688 21.140625 -18.789062 21.828125 -17.71875 C 22.523438 -16.644531 23.003906 -15.375 23.265625 -13.90625 L 19.15625 -13.90625 C 18.863281 -15.039062 18.394531 -15.96875 17.75 -16.6875 C 17.113281 -17.40625 16.347656 -17.9375 15.453125 -18.28125 C 14.554688 -18.625 13.585938 -18.796875 12.546875 -18.796875 C 11.515625 -18.796875 10.546875 -18.609375 9.640625 -18.234375 C 8.734375 -17.867188 7.9375 -17.34375 7.25 -16.65625 C 6.570312 -15.96875 6.039062 -15.144531 5.65625 -14.1875 C 5.28125 -13.238281 5.09375 -12.175781 5.09375 -11 C 5.09375 -9.800781 5.28125 -8.722656 5.65625 -7.765625 C 6.039062 -6.816406 6.570312 -6.003906 7.25 -5.328125 C 7.9375 -4.648438 8.734375 -4.128906 9.640625 -3.765625 C 10.546875 -3.410156 11.515625 -3.234375 12.546875 -3.234375 C 13.585938 -3.234375 14.550781 -3.40625 15.4375 -3.75 C 16.332031 -4.09375 17.101562 -4.625 17.75 -5.34375 C 18.394531 -6.0625 18.859375 -6.984375 19.140625 -8.109375 L 23.265625 -8.109375 C 23.003906 -6.640625 22.523438 -5.363281 21.828125 -4.28125 C 21.140625 -3.207031 20.304688 -2.316406 19.328125 -1.609375 C 18.347656 -0.910156 17.285156 -0.390625 16.140625 -0.046875 C 14.992188 0.296875 13.832031 0.46875 12.65625 0.46875 Z M 12.65625 0.46875 "/></g></g></g><g fill="#1a1815" fill-opacity="1"><g transform="translate(195.671347, 208.221123)"><g><path d="M 9.84375 0.5 C 8.582031 0.5 7.414062 0.273438 6.34375 -0.171875 C 5.28125 -0.628906 4.359375 -1.257812 3.578125 -2.0625 C 2.796875 -2.875 2.1875 -3.8125 1.75 -4.875 C 1.320312 -5.945312 1.109375 -7.085938 1.109375 -8.296875 C 1.109375 -9.515625 1.320312 -10.65625 1.75 -11.71875 C 2.1875 -12.78125 2.796875 -13.710938 3.578125 -14.515625 C 4.359375 -15.328125 5.28125 -15.960938 6.34375 -16.421875 C 7.414062 -16.878906 8.585938 -17.109375 9.859375 -17.109375 C 11.140625 -17.109375 12.3125 -16.878906 13.375 -16.421875 C 14.4375 -15.960938 15.359375 -15.328125 16.140625 -14.515625 C 16.929688 -13.710938 17.539062 -12.78125 17.96875 -11.71875 C 18.40625 -10.65625 18.625 -9.515625 18.625 -8.296875 C 18.625 -7.066406 18.40625 -5.921875 17.96875 -4.859375 C 17.539062 -3.804688 16.929688 -2.875 16.140625 -2.0625 C 15.359375 -1.257812 14.429688 -0.628906 13.359375 -0.171875 C 12.296875 0.273438 11.125 0.5 9.84375 0.5 Z M 9.875 -3.140625 C 10.8125 -3.140625 11.644531 -3.359375 12.375 -3.796875 C 13.101562 -4.242188 13.679688 -4.851562 14.109375 -5.625 C 14.535156 -6.40625 14.75 -7.296875 14.75 -8.296875 C 14.75 -9.296875 14.535156 -10.1875 14.109375 -10.96875 C 13.679688 -11.75 13.101562 -12.363281 12.375 -12.8125 C 11.644531 -13.257812 10.8125 -13.484375 9.875 -13.484375 C 8.945312 -13.484375 8.113281 -13.257812 7.375 -12.8125 C 6.632812 -12.363281 6.050781 -11.75 5.625 -10.96875 C 5.195312 -10.1875 4.984375 -9.296875 4.984375 -8.296875 C 4.984375 -7.296875 5.195312 -6.40625 5.625 -5.625 C 6.050781 -4.851562 6.632812 -4.242188 7.375 -3.796875 C 8.113281 -3.359375 8.945312 -3.140625 9.875 -3.140625 Z M 9.875 -3.140625 "/></g></g></g><g fill="#1a1815" fill-opacity="1"><g transform="translate(214.6829, 208.221123)"><g><path d="M 12.65625 0.46875 C 11.363281 0.46875 10.132812 0.28125 8.96875 -0.09375 C 7.8125 -0.476562 6.75 -1.019531 5.78125 -1.71875 C 4.820312 -2.425781 3.988281 -3.257812 3.28125 -4.21875 C 2.582031 -5.175781 2.035156 -6.226562 1.640625 -7.375 C 1.253906 -8.53125 1.0625 -9.742188 1.0625 -11.015625 C 1.0625 -12.296875 1.253906 -13.507812 1.640625 -14.65625 C 2.035156 -15.800781 2.582031 -16.847656 3.28125 -17.796875 C 3.988281 -18.753906 4.820312 -19.582031 5.78125 -20.28125 C 6.75 -20.988281 7.8125 -21.53125 8.96875 -21.90625 C 10.132812 -22.289062 11.363281 -22.484375 12.65625 -22.484375 C 13.820312 -22.484375 14.972656 -22.3125 16.109375 -21.96875 C 17.253906 -21.625 18.320312 -21.097656 19.3125 -20.390625 C 20.300781 -19.679688 21.140625 -18.789062 21.828125 -17.71875 C 22.523438 -16.644531 23.003906 -15.375 23.265625 -13.90625 L 19.15625 -13.90625 C 18.863281 -15.039062 18.394531 -15.96875 17.75 -16.6875 C 17.113281 -17.40625 16.347656 -17.9375 15.453125 -18.28125 C 14.554688 -18.625 13.585938 -18.796875 12.546875 -18.796875 C 11.515625 -18.796875 10.546875 -18.609375 9.640625 -18.234375 C 8.734375 -17.867188 7.9375 -17.34375 7.25 -16.65625 C 6.570312 -15.96875 6.039062 -15.144531 5.65625 -14.1875 C 5.28125 -13.238281 5.09375 -12.175781 5.09375 -11 C 5.09375 -9.800781 5.28125 -8.722656 5.65625 -7.765625 C 6.039062 -6.816406 6.570312 -6.003906 7.25 -5.328125 C 7.9375 -4.648438 8.734375 -4.128906 9.640625 -3.765625 C 10.546875 -3.410156 11.515625 -3.234375 12.546875 -3.234375 C 13.585938 -3.234375 14.550781 -3.40625 15.4375 -3.75 C 16.332031 -4.09375 17.101562 -4.625 17.75 -5.34375 C 18.394531 -6.0625 18.859375 -6.984375 19.140625 -8.109375 L 23.265625 -8.109375 C 23.003906 -6.640625 22.523438 -5.363281 21.828125 -4.28125 C 21.140625 -3.207031 20.304688 -2.316406 19.328125 -1.609375 C 18.347656 -0.910156 17.285156 -0.390625 16.140625 -0.046875 C 14.992188 0.296875 13.832031 0.46875 12.65625 0.46875 Z M 12.65625 0.46875 "/></g></g></g><g fill="#1a1815" fill-opacity="1"><g transform="translate(238.29816, 208.221123)"><g><path d="M 9.84375 0.5 C 8.582031 0.5 7.414062 0.273438 6.34375 -0.171875 C 5.28125 -0.628906 4.359375 -1.257812 3.578125 -2.0625 C 2.796875 -2.875 2.1875 -3.8125 1.75 -4.875 C 1.320312 -5.945312 1.109375 -7.085938 1.109375 -8.296875 C 1.109375 -9.515625 1.320312 -10.65625 1.75 -11.71875 C 2.1875 -12.78125 2.796875 -13.710938 3.578125 -14.515625 C 4.359375 -15.328125 5.28125 -15.960938 6.34375 -16.421875 C 7.414062 -16.878906 8.585938 -17.109375 9.859375 -17.109375 C 11.140625 -17.109375 12.3125 -16.878906 13.375 -16.421875 C 14.4375 -15.960938 15.359375 -15.328125 16.140625 -14.515625 C 16.929688 -13.710938 17.539062 -12.78125 17.96875 -11.71875 C 18.40625 -10.65625 18.625 -9.515625 18.625 -8.296875 C 18.625 -7.066406 18.40625 -5.921875 17.96875 -4.859375 C 17.539062 -3.804688 16.929688 -2.875 16.140625 -2.0625 C 15.359375 -1.257812 14.429688 -0.628906 13.359375 -0.171875 C 12.296875 0.273438 11.125 0.5 9.84375 0.5 Z M 9.875 -3.140625 C 10.8125 -3.140625 11.644531 -3.359375 12.375 -3.796875 C 13.101562 -4.242188 13.679688 -4.851562 14.109375 -5.625 C 14.535156 -6.40625 14.75 -7.296875 14.75 -8.296875 C 14.75 -9.296875 14.535156 -10.1875 14.109375 -10.96875 C 13.679688 -11.75 13.101562 -12.363281 12.375 -12.8125 C 11.644531 -13.257812 10.8125 -13.484375 9.875 -13.484375 C 8.945312 -13.484375 8.113281 -13.257812 7.375 -12.8125 C 6.632812 -12.363281 6.050781 -11.75 5.625 -10.96875 C 5.195312 -10.1875 4.984375 -9.296875 4.984375 -8.296875 C 4.984375 -7.296875 5.195312 -6.40625 5.625 -5.625 C 6.050781 -4.851562 6.632812 -4.242188 7.375 -3.796875 C 8.113281 -3.359375 8.945312 -3.140625 9.875 -3.140625 Z M 9.875 -3.140625 "/></g></g></g><g fill="#1a1815" fill-opacity="1"><g transform="translate(257.309714, 208.221123)"><g><path d="M 9.140625 0.5 C 7.960938 0.5 6.878906 0.273438 5.890625 -0.171875 C 4.910156 -0.628906 4.066406 -1.257812 3.359375 -2.0625 C 2.648438 -2.875 2.097656 -3.8125 1.703125 -4.875 C 1.304688 -5.945312 1.109375 -7.085938 1.109375 -8.296875 C 1.109375 -9.515625 1.300781 -10.65625 1.6875 -11.71875 C 2.070312 -12.78125 2.617188 -13.710938 3.328125 -14.515625 C 4.046875 -15.328125 4.898438 -15.960938 5.890625 -16.421875 C 6.878906 -16.878906 7.976562 -17.109375 9.1875 -17.109375 C 10.09375 -17.109375 10.914062 -16.945312 11.65625 -16.625 C 12.394531 -16.3125 13.03125 -15.910156 13.5625 -15.421875 C 14.09375 -14.929688 14.503906 -14.421875 14.796875 -13.890625 L 14.71875 -15.625 L 14.71875 -22.734375 L 18.609375 -22.734375 L 18.609375 0 L 14.890625 0 L 14.890625 -2.796875 C 14.566406 -2.210938 14.128906 -1.671875 13.578125 -1.171875 C 13.035156 -0.671875 12.390625 -0.269531 11.640625 0.03125 C 10.898438 0.34375 10.066406 0.5 9.140625 0.5 Z M 9.859375 -3.09375 C 10.535156 -3.09375 11.164062 -3.222656 11.75 -3.484375 C 12.34375 -3.753906 12.863281 -4.125 13.3125 -4.59375 C 13.757812 -5.070312 14.109375 -5.625 14.359375 -6.25 C 14.617188 -6.882812 14.75 -7.566406 14.75 -8.296875 C 14.75 -9.035156 14.625 -9.71875 14.375 -10.34375 C 14.125 -10.96875 13.773438 -11.515625 13.328125 -11.984375 C 12.878906 -12.453125 12.359375 -12.816406 11.765625 -13.078125 C 11.179688 -13.347656 10.546875 -13.484375 9.859375 -13.484375 C 8.941406 -13.484375 8.109375 -13.257812 7.359375 -12.8125 C 6.617188 -12.363281 6.03125 -11.75 5.59375 -10.96875 C 5.164062 -10.195312 4.953125 -9.304688 4.953125 -8.296875 C 4.953125 -7.316406 5.160156 -6.429688 5.578125 -5.640625 C 6.003906 -4.859375 6.585938 -4.238281 7.328125 -3.78125 C 8.066406 -3.320312 8.910156 -3.09375 9.859375 -3.09375 Z M 9.859375 -3.09375 "/></g></g></g><g fill="#1a1815" fill-opacity="1"><g transform="translate(277.46816, 208.221123)"><g><path d="M 18.09375 -8.59375 C 18.09375 -8.382812 18.085938 -8.1875 18.078125 -8 C 18.066406 -7.820312 18.046875 -7.578125 18.015625 -7.265625 L 5.046875 -7.265625 C 5.179688 -6.359375 5.46875 -5.585938 5.90625 -4.953125 C 6.34375 -4.316406 6.882812 -3.828125 7.53125 -3.484375 C 8.175781 -3.148438 8.878906 -2.984375 9.640625 -2.984375 C 10.628906 -2.984375 11.429688 -3.179688 12.046875 -3.578125 C 12.660156 -3.972656 13.109375 -4.519531 13.390625 -5.21875 L 17.65625 -5.21875 C 17.445312 -4.476562 17.109375 -3.757812 16.640625 -3.0625 C 16.171875 -2.375 15.597656 -1.765625 14.921875 -1.234375 C 14.242188 -0.703125 13.46875 -0.28125 12.59375 0.03125 C 11.71875 0.34375 10.757812 0.5 9.71875 0.5 C 8.46875 0.5 7.316406 0.269531 6.265625 -0.1875 C 5.222656 -0.644531 4.316406 -1.273438 3.546875 -2.078125 C 2.773438 -2.890625 2.175781 -3.828125 1.75 -4.890625 C 1.320312 -5.960938 1.109375 -7.097656 1.109375 -8.296875 C 1.109375 -9.515625 1.320312 -10.65625 1.75 -11.71875 C 2.175781 -12.78125 2.773438 -13.710938 3.546875 -14.515625 C 4.316406 -15.328125 5.222656 -15.960938 6.265625 -16.421875 C 7.316406 -16.878906 8.46875 -17.109375 9.71875 -17.109375 C 10.96875 -17.109375 12.109375 -16.878906 13.140625 -16.421875 C 14.171875 -15.972656 15.050781 -15.351562 15.78125 -14.5625 C 16.519531 -13.769531 17.085938 -12.859375 17.484375 -11.828125 C 17.890625 -10.804688 18.09375 -9.726562 18.09375 -8.59375 Z M 5.203125 -10.28125 L 14.09375 -10.28125 C 14.039062 -10.90625 13.8125 -11.472656 13.40625 -11.984375 C 13 -12.503906 12.472656 -12.921875 11.828125 -13.234375 C 11.179688 -13.546875 10.472656 -13.703125 9.703125 -13.703125 C 9.046875 -13.703125 8.414062 -13.578125 7.8125 -13.328125 C 7.207031 -13.085938 6.675781 -12.71875 6.21875 -12.21875 C 5.769531 -11.71875 5.429688 -11.070312 5.203125 -10.28125 Z M 5.203125 -10.28125 "/></g></g></g></svg>